# xmcd
#
# Track frame offsets: 
#        150
#        12095
#        30818
#        47414
#        62495
#        78070
#        93657
#        111264
#        129741
#        146609
#
# Disc length: 2184 seconds
#
# Revision: 0
# Processed by: cddbd v1.5.2PL0 Copyright (c) Steve Scherf et al.
# Submitted via: ExactAudioCopy v1.3
#
DISCID=7208860a
DTITLE=Kenny Chesney - Super Hits
DYEAR=2008
DGENRE=Country
TTITLE0=Fall In Love
TTITLE1=She Thinks My Tractors Sexy
TTITLE2=Me And You
TTITLE3=She Gets That Way
TTITLE4=I Will Stand
TTITLE5=Back In My Arms Again
TTITLE6=California
TTITLE7=What I Need To Do
TTITLE8=A Chance
TTITLE9=Never Gonna Feel Like That Again (Live)
EXTD=
EXTT0=
EXTT1=
EXTT2=
EXTT3=
EXTT4=
EXTT5=
EXTT6=
EXTT7=
EXTT8=
EXTT9=
PLAYORDER=
